<svg id="SvgjsSvg1039" width="288" height="288" xmlns="http://www.w3.org/2000/svg" version="1.1" xmlns:xlink="http://www.w3.org/1999/xlink" xmlns:svgjs="http://svgjs.com/svgjs"><defs id="SvgjsDefs1040"></defs><g id="SvgjsG1041"><svg xmlns="http://www.w3.org/2000/svg" data-name="Layer 1" viewBox="0 0 512 512" width="288" height="288"><defs><linearGradient id="a" x1="256" x2="256" y1="26" y2="474.071" gradientUnits="userSpaceOnUse"><stop offset="0" stop-color="#00efd1" class="stopColor00efd1 svgShape"></stop><stop offset="1" stop-color="#00acea" class="stopColor00acea svgShape"></stop></linearGradient></defs><g data-name="&amp;lt;Group&amp;gt;" fill="#000000" class="color000 svgShape"><path fill="url(#a)" d="M381,220.934V146.208a125.757,125.757,0,0,0-37.363-90.025C320.305,33.02,289.8,20.326,257.559,20.326c-.54,0-1.092,0-1.633.011C187.037,20.372,131,76.823,131,146.208v74.726c-26,3.095-45,24.916-45,51.308V439.975C86,468.481,108.756,492,137.263,492H374.737C403.244,492,426,468.481,426,439.975V272.242C426,245.85,407,224.029,381,220.934ZM151,146.208C151,87.83,198.111,40,256,40h.138a103.31,103.31,0,0,1,73.415,30.216A106.288,106.288,0,0,1,361,146.208V221H339V146.208a84.392,84.392,0,0,0-24.875-60.452A81.03,81.03,0,0,0,256.782,62h-.626C210.146,62,173,99.8,173,146.208V221H151Zm168,0V221H193V146.208C193,110.823,221.175,82,256.156,82h.626A61.141,61.141,0,0,1,300.05,99.965,64.519,64.519,0,0,1,319,146.208ZM407,440.3A31.7,31.7,0,0,1,375.3,472H137.7A31.7,31.7,0,0,1,106,440.3V272.7A31.7,31.7,0,0,1,137.7,241H375.3A31.7,31.7,0,0,1,407,272.7Z" data-name="&amp;lt;Compound Path&amp;gt;"></path><path fill="url(#a)" d="M256,324.165a36.057,36.057,0,0,0-10,70.7v27.96a10,10,0,0,0,20,0v-27.96a36.057,36.057,0,0,0-10-70.7Zm0,52.123a16.062,16.062,0,1,1,16.062-16.062A16.08,16.08,0,0,1,256,376.288Z" data-name="&amp;lt;Compound Path&amp;gt;"></path></g></svg></g></svg>